HIERARCHY
ROOT root     
{
	OFFSET 0.0000 0.0000 0.0000
	CHANNELS 6 Xposition Yposition Zposition Zrotation Yrotation Xrotation
	JOINT pelvis   
	{
		OFFSET 0.0000 0.0000 0.0000
		CHANNELS 3 Zrotation Yrotation Xrotation
		JOINT thorax   
		{
			OFFSET 0.0000 23.0750 -5.0000
			CHANNELS 3 Zrotation Yrotation Xrotation
			JOINT rclavicle
			{
				OFFSET 0.0000 28.0009 0.0000
				CHANNELS 3 Zrotation Yrotation Xrotation
				JOINT rhumerus 
				{
					OFFSET -18.5725 5.5939 0.0000
					CHANNELS 3 Zrotation Yrotation Xrotation
					JOINT rradius  
					{
						OFFSET -24.8459 0.0000 0.0000
						CHANNELS 3 Zrotation Yrotation Xrotation
						JOINT rhand    
						{
							OFFSET -24.5477 0.0000 0.0000
							CHANNELS 3 Zrotation Yrotation Xrotation
							End Site
							{
								OFFSET -8.1826 0.0000 0.0000
							}
						}
					}
				}
			}
			JOINT lclavicle
			{
				OFFSET 0.0000 28.0009 0.0000
				CHANNELS 3 Zrotation Yrotation Xrotation
				JOINT lhumerus 
				{
					OFFSET 18.5725 5.5939 0.0000
					CHANNELS 3 Zrotation Yrotation Xrotation
					JOINT lradius  
					{
						OFFSET 24.8459 0.0000 0.0000
						CHANNELS 3 Zrotation Yrotation Xrotation
						JOINT lhand    
						{
							OFFSET 24.5477 0.0000 0.0000
							CHANNELS 3 Zrotation Yrotation Xrotation
							End Site
							{
								OFFSET 8.1826 0.0000 0.0000
							}
						}
					}
				}
			}
			JOINT head     
			{
				OFFSET 0.0000 35.2030 0.0000
				CHANNELS 3 Zrotation Yrotation Xrotation
				End Site
				{
					OFFSET 0.0000 11.7343 0.0000
				}
			}
		}
		JOINT rfemur   
		{
			OFFSET -8.2817 0.0000 0.0000
			CHANNELS 3 Zrotation Yrotation Xrotation
			JOINT rtibia   
			{
				OFFSET 0.0000 -43.3627 0.0000
				CHANNELS 3 Zrotation Yrotation Xrotation
				JOINT rfoot    
				{
					OFFSET 0.0000 -38.2947 0.0000
					CHANNELS 3 Zrotation Yrotation Xrotation
					JOINT rtoes    
					{
						OFFSET 0.0000 0.0000 16.6054
						CHANNELS 3 Zrotation Yrotation Xrotation
						End Site
						{
							OFFSET 0.0000 0.0000 5.5351
						}
					}
				}
			}
		}
		JOINT lfemur   
		{
			OFFSET 8.2817 0.0000 0.0000
			CHANNELS 3 Zrotation Yrotation Xrotation
			JOINT ltibia   
			{
				OFFSET 0.0000 -43.3627 0.0000
				CHANNELS 3 Zrotation Yrotation Xrotation
				JOINT lfoot    
				{
					OFFSET 0.0000 -38.2947 0.0000
					CHANNELS 3 Zrotation Yrotation Xrotation
					JOINT ltoes    
					{
						OFFSET 0.0000 0.0000 16.6054
						CHANNELS 3 Zrotation Yrotation Xrotation
						End Site
						{
							OFFSET 0.0000 0.0000 5.5351
						}
					}
				}
			}
		}
	}
}
MOTION
Frames: 11
Frame Time: .0333333
11.084 107.76 8.0455 140.424 -86.7909 -104.563 0 -0 0 -3.29237 -4.04185 0.556992 7.56172 -8.61183 7.11839e-06 13.9569 22.6124 -54.0786 -9.85259e-07 69.5446 -1.41905e-06 -37.953 6.9052 -2.37699 -9.28809 11.1532 -8.54652e-06 -21.2406 -14.3624 -56.2323 0 -87.741 0 42.9079 0.431801 0.169697 -0.466395 -2.97191 -9.84354 2.87268 -13.7335 -52.6623 -0 -0 23.0455 -3.38684e-06 -0.861898 22.2293 -0.326102 -5.17805e-06 -79.0255 -7.02388 7.2417 -52.1672 -0 -0 28.5422 -3.11893e-05 9.01742 29.1402 4.41876 2.47197e-05 -63.3061 
10.125 107.34 7.917 142.418 -86.8212 -106.296 0 -0 0 -3.28752 -3.99185 0.875008 7.53324 -8.61754 3.06312e-06 14.061 22.2442 -54.8204 -1.00446e-06 69.8696 -1.43801e-06 -38.0668 6.8484 -2.36507 -9.11641 11.2133 4.47576e-06 -21.2975 -14.1216 -56.4681 4.73854e-06 -87.4749 -4.95204e-06 43.2951 0.621704 0.246803 -0.275605 -3.04348 -9.84412 3.47601 -13.7598 -53.8879 -0 -0 22.0468 4.0019e-07 -0.0840003 22.7595 -0.0324998 3.58763e-07 -79.6221 -7.63307 7.57489 -53.2448 -0 -0 27.0851 -1.71396e-05 8.69826 29.5585 4.31613 2.26868e-05 -63.412 
9.1341 106.84 7.7811 144.347 -86.8523 -108.037 0 -0 0 -3.27014 -3.92653 1.20161 7.51067 -8.59035 -9.55296e-07 14.2864 21.855 -55.4152 -7.26043e-07 70.2311 -1.03245e-06 -38.2165 6.76457 -2.34593 -8.95383 11.233 -3.87645e-07 -21.4346 -13.9305 -56.5052 -3.84462e-06 -87.1695 3.65969e-06 43.6147 0.766797 0.306796 -0.102101 -3.1104 -9.7234 4.08243 -13.7846 -54.9758 -0 -0 21.0264 1.13338e-06 0.677798 23.3198 0.268303 6.83309e-06 -80.1625 -8.2554 7.92044 -54.215 -0 -0 25.6001 3.59523e-06 8.24445 30.0429 4.14904 8.26664e-06 -63.6074 
8.1169 106.26 7.6376 146.226 -86.907 -109.781 0 -0 0 -3.23539 -3.85289 1.53085 7.5067 -8.53218 2.45004e-06 14.5961 21.4603 -55.8678 -0 70.6251 -0 -38.3895 6.67589 -2.32645 -8.82203 11.2118 4.87248e-06 -21.6131 -13.7765 -56.357 -3.45245e-06 -86.8499 3.26754e-06 43.8545 0.863203 0.347498 0.0489969 -3.17447 -9.50725 4.68016 -13.8018 -55.9457 -0 -0 20.0209 6.43727e-07 1.40141 23.8666 0.567101 1.50252e-06 -80.6016 -8.88624 8.27476 -55.1009 -0 -0 24.1214 6.15685e-05 7.65685 30.5271 3.90643 5.18091e-05 -63.8256 
7.0783 105.61 7.4869 148.112 -86.9609 -111.586 0 -0 0 -3.18179 -3.77723 1.8598 7.53187 -8.44569 -5.06514e-06 14.9666 21.0746 -56.1872 -7.63368e-07 71.0403 -1.0694e-06 -38.5699 6.60381 -2.31292 -8.74076 11.1521 -5.57622e-06 -21.8004 -13.6497 -56.0465 2.39564e-06 -86.4947 -2.54665e-06 44.0019 0.909893 0.367601 0.175102 -3.23668 -9.2309 5.25758 -13.8052 -56.8209 -0 -0 19.0654 2.15251e-06 2.06932 24.3823 0.854602 7.75533e-06 -80.9444 -9.52036 8.63277 -55.9279 -0 -0 22.6681 -8.07785e-05 6.95119 30.9871 3.59174 5.47232e-05 -64.208 
6.0235 104.9 7.33 150.036 -87.0702 -113.446 0 -0 0 -3.10764 -3.70503 2.18971 7.59229 -8.33328 -2.56736e-06 15.3761 20.7106 -56.389 -0 71.4739 -0 -38.7367 6.56611 -2.31046 -8.72433 11.0595 1.19097e-07 -21.9738 -13.5475 -55.5999 -2.3181e-06 -86.14 2.16708e-06 44.0546 0.907497 0.367203 0.276205 -3.29561 -8.93279 5.80777 -13.7937 -57.6243 -0 -0 18.1864 -2.37624e-05 2.67056 24.8741 1.12399 -4.51468e-06 -81.1868 -10.1612 8.9977 -56.7226 -0 -0 21.2683 -5.75598e-05 6.12633 31.4077 3.20155 -3.60585e-05 -64.6263 
4.9572 104.11 7.1682 152.101 -87.1644 -115.488 0 -0 0 -3.01506 -3.64016 2.52681 7.6905 -8.19744 3.17056e-06 15.817 20.3792 -56.4903 -1.11357e-06 71.9252 -8.07924e-07 -38.8741 6.57473 -2.32234 -8.78089 10.9404 -5.82992e-07 -22.1211 -13.4709 -55.0429 1.97749e-06 -85.7894 -2.12851e-06 44.0165 0.859 0.347192 0.3541 -3.34844 -8.65107 6.32473 -13.7666 -58.3748 -0 -0 17.4001 -1.18045e-05 3.20241 25.3811 1.37391 5.59631e-06 -81.3911 -10.8099 9.37062 -57.5001 -0 -0 19.9279 -4.09856e-05 5.19906 31.8245 2.74695 1.05241e-05 -65.2109 
3.8817 103.27 7.0031 154.354 -87.2543 -117.751 0 -0 0 -2.90635 -3.58459 2.88223 7.82395 -8.04154 -1.67579e-07 16.2869 20.0887 -56.5065 -0 72.3863 -0 -38.9631 6.63347 -2.3489 -8.91013 10.8037 -5.86997e-06 -22.2423 -13.4242 -54.4016 1.66966e-06 -85.4438 -2.25317e-06 43.9072 0.769399 0.310099 0.411996 -3.39107 -8.41985 6.80847 -13.7306 -59.0825 -0 -0 16.7129 1.23151e-06 3.67106 25.9603 1.60881 2.34706e-05 -81.5844 -11.4749 9.75852 -58.2746 -0 -0 18.6643 4.1189e-05 4.16845 32.2715 2.22851 2.67571e-05 -65.8172 
2.7978 102.36 6.8368 156.801 -87.3756 -120.226 0 -0 0 -2.78702 -3.53959 3.27145 7.98654 -7.8694 -1.606e-06 16.7935 19.844 -56.452 -8.60213e-07 72.8592 -1.16548e-06 -38.995 6.7375 -2.38793 -9.10406 10.6575 -5.0955e-07 -22.3496 -13.4149 -53.6933 5.88685e-07 -85.0859 -1.1882e-06 43.7485 0.644797 0.258898 0.454199 -3.41916 -8.26508 7.25648 -13.6906 -59.7508 -0 -0 16.1212 -7.81446e-06 4.09145 26.6786 1.83952 4.357e-05 -81.8484 -12.1575 10.1596 -59.0451 -0 -0 17.4776 2.59061e-06 3.05438 32.8168 1.65649 -1.11767e-05 -66.5522 
1.7032 101.39 6.6713 159.461 -87.4852 -122.96 0 -0 0 -2.66373 -3.50567 3.71119 8.1699 -7.68574 5.57863e-06 17.349 19.6466 -56.3408 -1.19478e-06 73.3484 -8.89711e-07 -38.9611 6.87464 -2.43439 -9.34767 10.5099 7.88821e-06 -22.4673 -13.4522 -52.9331 -3.45075e-06 -84.7536 3.14856e-06 43.5738 0.492902 0.197003 0.485608 -3.42873 -8.20301 7.66791 -13.6574 -60.3698 -0 -0 15.6155 -4.1197e-06 4.48659 27.5999 2.08196 -6.1036e-05 -82.2208 -12.8543 10.5699 -59.7989 -0 -0 16.3783 1.01562e-05 1.87078 33.5088 1.0331 -9.51454e-07 -67.3196 
0.59417 100.36 6.5089 162.225 -87.594 -125.845 0 -0 0 -2.54521 -3.48335 4.21742 8.36616 -7.49538 3.25591e-07 17.9668 19.4936 -56.1759 -1.22667e-06 73.848 -9.21801e-07 -38.8624 7.02689 -2.48162 -9.62193 10.3662 1.60937e-06 -22.6205 -13.5416 -52.1237 4.82479e-07 -84.4255 -1.08209e-06 43.4129 0.322502 0.128398 0.51121 -3.41739 -8.23821 8.04032 -13.6444 -60.9287 -0 -0 15.1855 1.68859e-05 4.88333 28.7679 2.35445 1.41532e-05 -82.7347 -13.5468 10.972 -60.5141 -0 -0 15.3703 -6.04276e-07 0.654498 34.3862 0.369692 -6.43225e-06 -68.1913 
